HIERARCHY
ROOT Pelvis
{
	OFFSET 0.000000 0.000000 0.000000
	CHANNELS 6 Xposition Yposition Zposition Zrotation Yrotation Xrotation 
	JOINT Left_hip
	{
		OFFSET 0.076090 -0.089427 -0.010735
		CHANNELS 3 Zrotation Yrotation Xrotation
		JOINT Left_knee
		{
			OFFSET 0.030200 -0.359518 -0.003501
			CHANNELS 3 Zrotation Yrotation Xrotation
			JOINT Left_ankle
			{
				OFFSET -0.011005 -0.371022 -0.045888
				CHANNELS 3 Zrotation Yrotation Xrotation
				JOINT Left_foot
				{
					OFFSET 0.023930 -0.052103 0.111084
					CHANNELS 3 Zrotation Yrotation Xrotation
					End Site
					{
						OFFSET 0.000000 0.000000 0.000000
					}
				}
			}
		}
	}
	JOINT Right_hip
	{
		OFFSET -0.073836 -0.088112 -0.007709
		CHANNELS 3 Zrotation Yrotation Xrotation
		JOINT Right_knee
		{
			OFFSET -0.035715 -0.367809 -0.006536
			CHANNELS 3 Zrotation Yrotation Xrotation
			JOINT Right_ankle
			{
				OFFSET 0.013718 -0.371958 -0.043815
				CHANNELS 3 Zrotation Yrotation Xrotation
				JOINT Right_foot
				{
					OFFSET -0.021936 -0.046387 0.114542
					CHANNELS 3 Zrotation Yrotation Xrotation
					End Site
					{
						OFFSET 0.000000 0.000000 0.000000
					}
				}
			}
		}
	}
	JOINT Spine1
	{
		OFFSET -0.001865 0.102064 -0.019455
		CHANNELS 3 Zrotation Yrotation Xrotation
		JOINT Spine2
		{
			OFFSET 0.003082 0.129260 -0.001938
			CHANNELS 3 Zrotation Yrotation Xrotation
			JOINT Spine3
			{
				OFFSET 0.001104 0.048093 0.026561
				CHANNELS 3 Zrotation Yrotation Xrotation
				JOINT Neck
				{
					OFFSET -0.002010 0.204222 -0.047183
					CHANNELS 3 Zrotation Yrotation Xrotation
					JOINT Head
					{
						OFFSET 0.005050 0.063649 0.048489
						CHANNELS 3 Zrotation Yrotation Xrotation
						End Site
						{
							OFFSET 0.000000 0.000000 0.000000
						}
					}
				}
				JOINT Left_collar
				{
					OFFSET 0.072979 0.114065 -0.031633
					CHANNELS 3 Zrotation Yrotation Xrotation
					JOINT Left_shoulder
					{
						OFFSET 0.083419 0.032092 -0.006530
						CHANNELS 3 Zrotation Yrotation Xrotation
						JOINT Left_elbow
						{
							OFFSET 0.239393 -0.012014 -0.025060
							CHANNELS 3 Zrotation Yrotation Xrotation
							JOINT Left_wrist
							{
								OFFSET 0.227297 0.008116 0.000384
								CHANNELS 3 Zrotation Yrotation Xrotation
								JOINT Left_palm
								{
									OFFSET 0.074607 -0.009248 -0.012277
									CHANNELS 3 Zrotation Yrotation Xrotation
									End Site
									{
										OFFSET 0.000000 0.000000 0.000000
									}
								}
							}
						}
					}
				}
				JOINT Right_collar
				{
					OFFSET -0.074980 0.111880 -0.037894
					CHANNELS 3 Zrotation Yrotation Xrotation
					JOINT Right_shoulder
					{
						OFFSET -0.087565 0.034353 -0.009323
						CHANNELS 3 Zrotation Yrotation Xrotation
						JOINT Right_elbow
						{
							OFFSET -0.236838 -0.013719 -0.019794
							CHANNELS 3 Zrotation Yrotation Xrotation
							JOINT Right_wrist
							{
								OFFSET -0.235053 0.006433 -0.003853
								CHANNELS 3 Zrotation Yrotation Xrotation
								JOINT Right_palm
								{
									OFFSET -0.075499 -0.006894 -0.009792
									CHANNELS 3 Zrotation Yrotation Xrotation
									End Site
									{
										OFFSET 0.000000 0.000000 0.000000
									}
								}
							}
						}
					}
				}
			}
		}
	}
}
MOTION
Frames: 12
Frame Time: 0.100000
0.000000 0.000000 0.000000 174.821015 33.201160 -13.380558 2.904520 -0.890767 4.873106 -1.686354 -9.727903 -6.068219 -1.525962 5.775965 -5.353347 3.025043 8.748297 -3.472191 0.535375 0.245584 5.952778 3.193776 6.228286 -6.413481 5.009398 -9.898214 -10.001799 -6.885184 7.948096 7.009207 2.325724 0.500867 1.738035 0.930790 -2.898445 -0.209185 0.509706 -1.833357 -1.768877 -0.922638 2.556451 -11.926716 -4.481939 -5.798480 4.020446 -30.131595 -7.167707 1.180188 -50.478147 -15.742969 9.761404 8.999474 -24.601210 1.873457 -2.840011 -2.139291 -0.563393 -9.860219 -4.859562 -7.758877 29.309972 9.468207 2.060245 45.162476 9.821595 14.491096 -10.770175 23.694368 -5.807023 3.085612 0.335438 0.133233 12.004563 7.694979 -5.564513 
0.001818 0.000044 0.000991 174.766715 33.565770 -13.644434 3.010582 -0.908983 5.034280 -1.678298 -9.987248 -6.021445 -1.550596 5.805962 -5.261710 3.048003 8.652203 -3.704421 0.582265 0.068519 6.292944 3.296227 6.280559 -6.557145 4.915839 -10.033550 -9.967165 -6.892211 7.907814 6.938720 2.239082 0.752886 1.571746 0.895662 -2.718334 -0.056274 0.461262 -1.751037 -1.514984 -0.668520 1.964964 -11.903130 -4.162428 -6.410539 3.976034 -30.560216 -6.498684 1.119102 -50.779255 -15.201818 9.795774 8.001836 -22.712609 2.702552 -3.528929 -1.977157 -0.060405 -9.962417 -4.939766 -8.089774 29.798489 8.644700 2.336711 45.797790 8.552863 14.696276 -10.144303 22.534007 -4.993092 3.573064 0.171514 0.353779 12.094763 7.756948 -5.671136 
0.003319 0.000085 0.002773 174.838991 33.354035 -13.961382 3.097140 -0.704879 5.612555 -1.611505 -10.269287 -6.182017 -1.770323 6.301518 -5.294279 3.317348 8.151624 -3.949170 0.622747 -0.123070 6.746400 3.363741 6.731550 -6.604166 5.053394 -10.029551 -9.937045 -7.085746 7.711468 6.458242 2.322136 0.978794 1.660612 0.931560 -2.182461 0.273495 0.534518 -1.544173 -0.806757 -0.740165 1.689024 -12.365253 -4.191473 -6.673096 3.266439 -30.985633 -3.856465 1.086681 -51.046587 -12.724690 9.116301 7.222502 -18.648145 3.229207 -4.239432 -1.634667 -0.106655 -9.904007 -5.000443 -8.565223 30.700059 6.698641 2.702576 46.136615 6.443384 14.430586 -8.892672 18.030184 -4.498530 3.985025 -0.403580 0.755286 12.263283 7.713218 -5.924155 
0.004599 0.000154 0.004043 174.767824 33.633150 -14.432580 3.213637 -0.459475 6.233971 -1.549856 -10.863806 -6.435702 -2.089428 6.800824 -5.219536 3.579806 7.369555 -4.039594 0.671017 -0.406746 7.380573 3.418948 7.202642 -6.789769 4.900634 -10.289361 -9.844527 -6.985253 7.310438 6.039737 2.460913 0.939906 1.924184 1.047453 -1.972111 0.710636 0.704569 -1.591472 0.106974 -0.842326 1.701823 -12.900173 -4.212717 -6.427566 1.998554 -31.214908 -0.800082 1.469268 -51.108423 -9.272414 8.002814 6.452821 -12.015419 3.668045 -5.047598 -0.966945 -0.399738 -9.659933 -5.001492 -9.292488 31.464473 4.590982 3.040982 46.213214 4.255385 13.850132 -7.359932 11.141889 -4.112199 4.598143 -1.433004 1.122201 12.323080 7.546923 -6.116563 
0.006867 -0.000034 0.004124 174.677350 34.168087 -14.799805 3.279948 -0.199551 6.495772 -1.428038 -11.461005 -6.560385 -2.649920 7.104810 -4.870114 4.168484 6.635756 -4.390486 0.754452 -0.759575 7.575690 3.470152 7.391603 -6.526258 4.945153 -10.583453 -9.764740 -7.400785 6.870356 5.326973 2.707861 0.800041 2.309068 1.093515 -1.934273 1.032319 0.921633 -1.755465 1.033493 -1.330968 2.096914 -13.713797 -4.301544 -5.631293 0.320155 -30.858881 1.765795 1.725151 -51.540473 -5.878033 6.865076 5.405369 -4.900653 4.358029 -6.022216 -0.293156 -0.288550 -9.551112 -5.011227 -10.404096 31.334864 2.509413 3.224622 46.518315 2.136863 13.176749 -6.452891 6.350183 -3.948383 5.031565 -2.041112 0.877262 12.467790 7.382810 -6.397047 
0.010472 -0.000073 0.001912 174.515009 35.108968 -15.379321 3.163556 -0.223091 6.393351 -1.077870 -11.979409 -6.068266 -3.153566 7.233233 -4.658308 4.457161 6.078205 -4.605418 0.887489 -1.453220 7.955897 3.433848 7.043483 -6.531200 5.031879 -10.743404 -9.508461 -7.556810 6.610407 4.912458 3.064241 0.951946 3.087848 0.932587 -1.638757 1.228596 1.041238 -1.520414 1.671101 -1.921059 2.424858 -14.411813 -4.427148 -4.877337 -1.002456 -30.369034 3.603747 1.495168 -51.507265 -3.669230 5.786758 4.473565 -1.011787 3.880653 -6.695377 -0.124356 -1.085777 -9.231552 -4.971041 -10.593161 30.955094 1.436228 3.271170 46.111031 1.252357 12.310737 -5.316770 3.126853 -4.839403 5.408172 -2.349624 0.156195 12.388939 7.211395 -6.348678 
0.021501 0.000420 -0.009539 173.953605 37.639905 -16.516887 2.175328 -1.575895 3.074621 -0.289501 -12.453386 -0.576625 -2.277079 6.983333 -4.933819 2.421957 5.749092 -4.220143 1.824116 -2.602708 6.681713 2.689023 4.855205 -4.014019 3.501089 -10.738988 -9.249189 -5.450772 5.351468 5.666806 3.379381 2.044817 6.275192 0.470249 -0.679665 0.401960 1.193552 -0.126789 1.447839 -2.783148 1.535264 -15.621191 -4.114778 -5.313533 -2.947329 -27.301047 2.358592 0.447778 -48.995889 -4.057672 4.655395 3.725405 -0.698997 2.513327 -8.329304 -0.197803 -2.817251 -8.106232 -4.513348 -9.263694 28.685090 4.493253 3.155152 44.030612 4.315539 9.794506 -5.332685 -0.520974 -8.482270 5.843832 -2.830170 -1.654398 11.337652 6.829670 -5.551963 
0.042275 0.004066 -0.028462 172.606873 44.090740 -17.583451 0.508346 -3.967767 -3.822211 -0.565102 -14.816213 7.342518 -4.248471 7.279122 -3.985946 5.739276 3.337221 -3.675040 2.289383 -3.400754 0.951309 2.211546 0.720055 4.054190 6.862397 -14.504314 -10.655055 -12.469504 8.767538 2.891870 3.371635 3.622629 9.701153 0.065356 0.231176 0.060655 0.868726 1.658531 0.199141 -5.019410 -4.410181 -16.319802 -1.967696 -11.470052 -4.775317 -22.332487 -4.518207 0.078073 -38.419394 -8.373275 0.491456 2.914387 0.686692 -10.326853 -4.492966 -3.940319 -6.846459 -6.555027 -2.593513 -8.457124 24.127234 12.316624 3.093982 35.248058 7.163665 4.207478 -4.935189 2.822457 -18.138760 0.857437 1.750408 -12.809834 9.708329 4.427191 -3.570495 
0.064611 0.012995 -0.044355 169.884060 51.098848 -21.845974 -2.192497 -2.750291 -6.726709 -1.857820 -12.225357 16.953155 -3.155436 10.597571 -7.601191 4.691670 5.711149 -3.489056 3.205505 -3.891042 -1.940547 0.993688 0.338683 11.297499 8.422780 -21.014688 -14.323060 -15.123820 14.443724 1.638847 4.133733 3.558223 14.232689 -0.353402 0.863403 -0.687455 0.718435 2.272207 0.800934 -4.835686 -2.174343 -20.014630 -4.280701 -10.162484 -2.877107 -18.120038 -9.756858 -1.460218 -23.004733 -9.003438 -4.835778 5.243120 -7.941327 -14.260722 -1.680356 -5.057384 -4.199533 -4.741202 -1.856551 -7.827397 20.498102 18.209021 1.066776 21.611932 9.645991 -1.048013 -4.394074 10.228532 -25.325234 -4.442200 3.598546 -16.406238 8.972541 3.129060 -2.437240 
0.085592 0.025292 -0.056345 167.518739 55.107706 -24.171401 -2.885718 -0.451202 -5.246086 -2.142938 -11.523302 13.911905 -2.879727 13.254570 -8.976001 5.050148 6.229288 -2.133465 3.507832 -2.781017 -9.076157 0.807669 -0.434111 22.547970 8.654221 -24.440421 -17.227355 -14.034857 16.274847 0.968561 3.594688 3.070805 16.281958 0.048172 1.911798 -1.885701 1.292925 3.081582 0.826308 -4.343608 5.735385 -21.423833 -5.607785 -3.715466 -2.894044 -12.372030 -12.471619 -4.310146 -9.974739 -8.063561 -9.986546 6.802203 -12.126800 -20.824619 -0.771274 -6.807408 -3.580294 -3.134902 -0.766340 -7.656245 16.851839 21.479392 -1.152938 13.289659 14.140512 -4.063701 -4.914931 15.482869 -29.411068 -4.025490 5.576355 -19.276258 6.295664 1.514862 -1.155234 
0.104345 0.026031 -0.063573 168.286140 55.486687 -24.388457 -2.651498 0.046789 -5.965922 -3.194272 -12.267816 14.023725 -5.694643 13.984505 -8.763596 8.778066 6.087899 -1.873145 1.182080 -0.643992 -11.520726 2.081566 1.801385 31.201419 9.138993 -22.544049 -18.243388 -14.502628 16.267708 -0.585034 3.035568 3.103014 16.210594 0.281968 2.994408 -1.311058 0.746321 4.297950 0.675373 -2.636910 1.193768 -21.684910 -5.009080 -13.184902 -2.155384 -6.152100 -11.975236 -6.714897 -2.421354 -6.324651 -12.581841 11.944659 -13.988684 -29.904201 0.904982 -6.535452 -5.703616 -2.590858 1.551861 -8.320987 13.821340 25.923925 -3.477599 13.720045 20.430947 -5.494773 -4.855228 16.328624 -36.380031 -2.734874 4.869164 -33.229618 3.827554 -0.444437 0.152006 
0.117642 0.015153 -0.057688 170.154402 51.491026 -22.746688 -0.819934 1.186596 -3.803473 -2.336271 -11.638469 9.039374 -8.595615 15.470636 -7.004571 12.959613 6.104134 -2.014213 -0.193732 1.526469 -4.856263 0.531528 4.057104 31.455039 6.874756 -19.874371 -15.529546 -10.530762 12.332640 -1.391599 2.777144 3.617633 11.505461 1.163067 4.710609 -1.615058 1.019018 6.087658 0.837940 -0.768285 -3.390792 -17.516367 -6.143462 -21.551231 2.126736 0.017755 -6.729486 -7.603111 -1.554308 -5.386537 -13.391499 18.939671 -17.236130 -37.601272 1.790842 -7.155152 -12.138503 -0.706084 5.187577 -7.896485 11.181531 27.690375 -4.329514 24.794801 29.739206 -0.314297 -3.967129 18.055496 -40.390264 -2.325015 3.814804 -56.243658 0.355182 -3.300281 2.613564 
